<?xml version="1.0" encoding="utf-8"?>
<!-- Generator: Adobe Illustrator 21.0.2, SVG Export Plug-In . SVG Version: 6.00 Build 0)  -->
<svg version="1.1" id="Layer_1" xmlns="http://www.w3.org/2000/svg" xmlns:xlink="http://www.w3.org/1999/xlink" x="0px" y="0px"
	 viewBox="0 0 866.6 170.2" style="enable-background:new 0 0 866.6 170.2;" xml:space="preserve">
<g>
	<path d="M46.9,6.2c4.3,4.2,6.7,8.9,7.2,14.2h-8.2c-0.9-4-2.7-7.2-5.5-9.6c-2.7-2.4-6.6-3.5-11.5-3.5c-6,0-10.9,2.2-14.6,6.5
		c-3.7,4.3-5.6,10.9-5.6,19.9c0,7.3,1.7,13.2,5,17.8c3.4,4.5,8.4,6.8,15,6.8c6.1,0,10.8-2.4,14-7.2c1.7-2.5,3-5.8,3.8-9.9h8.2
		c-0.7,6.6-3.1,12.1-7.2,16.5c-4.9,5.4-11.5,8-19.8,8c-7.2,0-13.2-2.2-18.1-6.6C3.2,53.4,0,44.4,0,32.3c0-9.2,2.4-16.8,7.2-22.7
		C12.4,3.2,19.6,0,28.8,0C36.6,0,42.6,2.1,46.9,6.2z"/>
	<path d="M84.4,1.7h8.5v25.8H125V1.7h8.5v62.4H125V34.9H92.9v29.2h-8.5V1.7z"/>
	<path d="M174.7,1.7v38.6c0,4.5,0.9,8.3,2.6,11.3c2.5,4.5,6.8,6.8,12.8,6.8c7.2,0,12.1-2.4,14.7-7.3c1.4-2.7,2.1-6.2,2.1-10.7V1.7
		h8.5v35c0,7.7-1,13.6-3.1,17.7c-3.8,7.5-11,11.3-21.6,11.3c-10.6,0-17.7-3.8-21.5-11.3c-2.1-4.1-3.1-10-3.1-17.7v-35H174.7z"/>
	<path d="M291,6.2c4.3,4.2,6.7,8.9,7.2,14.2H290c-0.9-4-2.7-7.2-5.5-9.6c-2.7-2.4-6.6-3.5-11.5-3.5c-6,0-10.9,2.2-14.6,6.5
		c-3.7,4.3-5.6,10.9-5.6,19.9c0,7.3,1.7,13.2,5,17.8c3.4,4.5,8.4,6.8,15,6.8c6.1,0,10.8-2.4,14-7.2c1.7-2.5,3-5.8,3.8-9.9h8.2
		c-0.7,6.6-3.1,12.1-7.2,16.5c-4.9,5.4-11.5,8-19.8,8c-7.2,0-13.2-2.2-18.1-6.6c-6.4-5.8-9.6-14.8-9.6-26.9c0-9.2,2.4-16.8,7.2-22.7
		c5.2-6.4,12.4-9.6,21.5-9.6C280.6,0,286.7,2.1,291,6.2z"/>
	<path d="M328.2,1.7h8.2v30.5l31.2-30.5h11.8l-26.7,25.2l27.2,37.2H369l-22.4-31.4l-10.2,9.6v21.8h-8.2V1.7z"/>
	<path d="M447.5,1.7h10l31.1,50.4V1.7h8.1v62.4h-9.5l-31.6-50.4v50.4h-8.1V1.7z"/>
	<path d="M580.3,10.6c4.1,5.5,6.2,12.6,6.2,21.2c0,9.3-2.4,17.1-7.1,23.2c-5.6,7.2-13.5,10.9-23.7,10.9c-9.6,0-17.1-3.2-22.6-9.5
		c-4.9-6.1-7.3-13.8-7.3-23.2c0-8.4,2.1-15.7,6.3-21.7C537.3,3.9,545.3,0,555.8,0C566.8,0,575,3.5,580.3,10.6z M572.8,50.4
		c3.3-5.3,5-11.5,5-18.4c0-7.3-1.9-13.3-5.8-17.7c-3.8-4.5-9.1-6.7-15.7-6.7c-6.5,0-11.7,2.2-15.8,6.7c-4.1,4.4-6.1,11-6.1,19.6
		c0,6.9,1.7,12.7,5.2,17.5c3.5,4.7,9.2,7.1,17,7.1C564.1,58.4,569.5,55.7,572.8,50.4z"/>
	<path d="M616.1,1.7h28.4c4.7,0,8.5,0.7,11.6,2.1c5.8,2.7,8.6,7.6,8.6,14.7c0,3.7-0.8,6.8-2.3,9.2c-1.5,2.4-3.7,4.3-6.5,5.7
		c2.4,1,4.3,2.3,5.5,3.9c1.2,1.6,1.9,4.2,2.1,7.9l0.3,8.4c0.1,2.4,0.3,4.1,0.6,5.3c0.5,2,1.4,3.3,2.7,3.8v1.4h-10.4
		c-0.3-0.5-0.5-1.2-0.7-2.1s-0.3-2.5-0.4-4.9L655,46.7c-0.2-4.1-1.7-6.8-4.4-8.2c-1.6-0.8-4-1.1-7.4-1.1h-18.7v26.8h-8.5V1.7z
		 M643.5,30.3c3.9,0,6.9-0.8,9.1-2.4c2.2-1.6,3.4-4.4,3.4-8.6c0-4.4-1.6-7.5-4.7-9.1c-1.7-0.8-3.9-1.3-6.7-1.3h-20.1v21.3H643.5z"/>
	<path d="M697.4,1.7h28.4c4.7,0,8.5,0.7,11.6,2.1c5.8,2.7,8.6,7.6,8.6,14.7c0,3.7-0.8,6.8-2.3,9.2c-1.5,2.4-3.7,4.3-6.5,5.7
		c2.4,1,4.3,2.3,5.5,3.9c1.2,1.6,1.9,4.2,2.1,7.9l0.3,8.4c0.1,2.4,0.3,4.1,0.6,5.3c0.5,2,1.4,3.3,2.7,3.8v1.4H738
		c-0.3-0.5-0.5-1.2-0.7-2.1s-0.3-2.5-0.4-4.9l-0.5-10.4c-0.2-4.1-1.7-6.8-4.4-8.2c-1.6-0.8-4-1.1-7.4-1.1h-18.7v26.8h-8.5V1.7z
		 M724.9,30.3c3.9,0,6.9-0.8,9.1-2.4c2.2-1.6,3.4-4.4,3.4-8.6c0-4.4-1.6-7.5-4.7-9.1C731,9.4,728.8,9,726,9h-20.1v21.3H724.9z"/>
	<path d="M779.7,1.7h8.5v62.4h-8.5V1.7z"/>
	<path d="M826,44c0.2,3.5,1,6.4,2.4,8.6c2.7,4.1,7.5,6.2,14.3,6.2c3.1,0,5.8-0.5,8.3-1.4c4.9-1.8,7.3-4.9,7.3-9.4
		c0-3.4-1-5.8-3.1-7.3c-2.1-1.4-5.3-2.6-9.8-3.7l-8.2-1.9c-5.3-1.2-9.1-2.6-11.4-4.1c-3.8-2.6-5.8-6.5-5.8-11.7
		c0-5.6,1.9-10.2,5.7-13.8c3.8-3.6,9.1-5.4,16-5.4c6.4,0,11.8,1.6,16.2,4.7c4.5,3.2,6.7,8.2,6.7,15.1h-7.9c-0.4-3.3-1.3-5.9-2.6-7.7
		c-2.5-3.3-6.7-4.9-12.6-4.9c-4.8,0-8.2,1-10.3,3.1c-2.1,2.1-3.1,4.5-3.1,7.3c0,3.1,1.2,5.3,3.7,6.7c1.6,0.9,5.3,2,11,3.4l8.5,2
		c4.1,1,7.2,2.3,9.5,4c3.8,2.9,5.8,7.2,5.8,12.7c0,6.9-2.5,11.9-7.4,14.8s-10.6,4.5-17.1,4.5c-7.6,0-13.5-2-17.8-5.9
		c-4.3-3.9-6.4-9.3-6.3-16H826z"/>
	<path d="M265.6,140.3h21.3v7.9h-21.3V140.3z"/>
	<path d="M315.4,154.8c1.9-3.9,5.6-7.4,11-10.6l8.2-4.7c3.7-2.1,6.2-3.9,7.7-5.4c2.3-2.4,3.5-5.1,3.5-8.1c0-3.5-1.1-6.4-3.2-8.4
		c-2.1-2.1-5-3.1-8.5-3.1c-5.2,0-8.9,2-10.9,6c-1.1,2.1-1.7,5.1-1.8,8.9h-7.8c0.1-5.3,1.1-9.6,2.9-13c3.3-5.9,9.2-8.8,17.5-8.8
		c7,0,12.1,1.9,15.3,5.7c3.2,3.8,4.8,8,4.8,12.6c0,4.9-1.7,9-5.1,12.5c-2,2-5.5,4.4-10.7,7.3l-5.8,3.2c-2.8,1.5-5,3-6.5,4.4
		c-2.8,2.5-4.6,5.2-5.4,8.2h33.2v7.2h-41.8C312.5,163.3,313.6,158.7,315.4,154.8z"/>
	<path d="M417,117.4c2.7,5,4.1,11.9,4.1,20.6c0,8.3-1.2,15.1-3.7,20.5c-3.6,7.8-9.4,11.6-17.5,11.6c-7.3,0-12.7-3.2-16.3-9.5
		c-3-5.3-4.5-12.4-4.5-21.3c0-6.9,0.9-12.8,2.7-17.8c3.3-9.2,9.4-13.8,18.1-13.8C407.8,107.7,413.5,110.9,417,117.4z M409.3,157.9
		c2.4-3.5,3.5-10.1,3.5-19.6c0-6.9-0.9-12.6-2.6-17.1c-1.7-4.5-5-6.7-9.9-6.7c-4.5,0-7.8,2.1-9.9,6.4c-2.1,4.2-3.1,10.5-3.1,18.7
		c0,6.2,0.7,11.2,2,15c2,5.7,5.5,8.6,10.5,8.6C403.8,163.2,406.9,161.4,409.3,157.9z"/>
	<path d="M451.6,125.4v-5.9c5.5-0.5,9.4-1.4,11.6-2.7s3.8-4.2,4.9-8.9h6v60.6h-8.2v-43.1H451.6z"/>
	<path d="M518.5,132.9c-2.2-2.3-3.4-5.2-3.4-8.8c0-4.5,1.6-8.4,4.9-11.7c3.3-3.3,7.9-4.9,14-4.9c5.8,0,10.4,1.5,13.7,4.6
		s5,6.7,5,10.8c0,3.8-1,6.9-2.9,9.2c-1.1,1.3-2.7,2.6-5,3.9c2.5,1.2,4.5,2.5,6,4c2.7,2.8,4.1,6.5,4.1,11c0,5.4-1.8,9.9-5.4,13.6
		c-3.6,3.7-8.7,5.6-15.2,5.6c-5.9,0-10.9-1.6-15-4.8c-4.1-3.2-6.1-7.9-6.1-14c0-3.6,0.9-6.7,2.6-9.3c1.8-2.6,4.4-4.6,7.8-6
		C521.3,135.2,519.7,134.1,518.5,132.9z M543.2,160.4c2.3-1.9,3.5-4.8,3.5-8.6c0-3.9-1.2-6.9-3.6-9c-2.4-2-5.5-3.1-9.3-3.1
		c-3.7,0-6.6,1-8.9,3.1c-2.3,2.1-3.5,5-3.5,8.6c0,3.2,1.1,5.9,3.2,8.2c2.1,2.3,5.4,3.5,9.8,3.5C537.9,163.3,540.8,162.3,543.2,160.4
		z M541.7,130.3c1.9-1.9,2.8-4.1,2.8-6.7c0-2.3-0.9-4.4-2.7-6.3c-1.8-1.9-4.6-2.9-8.3-2.9c-3.7,0-6.3,1-8,2.9
		c-1.6,1.9-2.5,4.1-2.5,6.7c0,2.9,1.1,5.1,3.2,6.7s4.6,2.4,7.5,2.4C537.2,133.2,539.8,132.2,541.7,130.3z"/>
	<path d="M580.7,140.3h21.3v7.9h-21.3V140.3z"/>
</g>
<g>
</g>
<g>
</g>
<g>
</g>
<g>
</g>
<g>
</g>
<g>
</g>
<g>
</g>
<g>
</g>
<g>
</g>
<g>
</g>
<g>
</g>
</svg>
