<?xml version="1.0" encoding="utf-8"?>
<!-- Generator: Adobe Illustrator 21.0.2, SVG Export Plug-In . SVG Version: 6.00 Build 0)  -->
<svg version="1.1" id="Layer_1" xmlns="http://www.w3.org/2000/svg" xmlns:xlink="http://www.w3.org/1999/xlink" x="0px" y="0px"
	 viewBox="0 0 833.6 345.6" style="enable-background:new 0 0 833.6 345.6;" xml:space="preserve">
<g>
	<path d="M705.7,12.9v325.6v0.4v0.4l-271.3-244V12.9l217.1,195.4V12.9H705.7z"/>
</g>
<g>
	<path d="M178.5,294.6c-15.6-16-28.1-34.1-37.2-55.3c-9.1-21.2-13.8-43.2-13.8-66.5c0-23.8,4.8-46.2,13.8-67.4
		c9.1-20.7,21.6-38.9,37.2-54.4c16-16,34.1-28.1,55.3-37.2C254.5,4.8,277,0,300.8,0s46.2,4.3,67,13.4C388.5,22.5,407,35,423,51
		l-41,40.2c-22.9-22.5-50.1-33.3-81.2-33.3c-16,0-31.1,3-44.9,8.6c-14.3,6-26.4,14.3-36.7,25.1c-10.4,10.4-18.6,22.5-24.6,36.3
		c-6,14.3-9.1,28.9-9.1,44.9s3,30.7,9.1,44.9c6,13.8,14.3,25.9,25.1,36.3c10.4,10.8,22.5,19,36.3,25.1c14.3,5.6,28.9,8.6,44.9,8.6
		l67,44.5c-20.7,9.1-43.2,13.4-67,13.4s-46.2-4.8-67-13.8C212.6,322.7,194.5,310.2,178.5,294.6z"/>
</g>
<g>
	<path d="M458.1,151c5.2,3.9,9.6,7.8,13.8,11.7l1.6,1.5l1.5,1.5l3,2.9c1.9,1.9,3.7,3.9,5.5,5.8c0.4,0.5,0.5,1,0.4,1.5
		c-0.1,0.5-0.3,1-0.5,1.5c-0.2,0.5-0.2,1-0.2,1.5v1.5v5.8v11.7v46.8v46.8v23.4c-1.9,1.9-3.7,3.9-5.6,5.8c-2,1.9-3.9,3.9-6,5.8
		c-4.1,3.9-8.4,7.8-13.5,11.7c-5-3.9-9.4-7.8-13.5-11.7c-2.1-1.9-4-3.9-6-5.8c-1.9-1.9-3.7-3.9-5.6-5.8v-23.4v-46.8v-46.8v-11.7
		v-5.8v-1.5c0-0.5,0-1-0.2-1.5c-0.2-0.5-0.4-1-0.5-1.5c-0.1-0.5,0-1,0.4-1.5c1.8-1.9,3.6-3.9,5.5-5.8l3-2.9l1.5-1.5l1.6-1.5
		C448.5,158.8,452.9,154.9,458.1,151z"/>
</g>
<circle cx="370.1" cy="283" r="28"/>
<polygon points="0,175.3 91.9,228.4 91.9,122.2 "/>
<polygon points="833.6,175.3 741.6,122.2 741.6,228.4 "/>
<g>
</g>
<g>
</g>
<g>
</g>
<g>
</g>
<g>
</g>
<g>
</g>
<g>
</g>
<g>
</g>
<g>
</g>
<g>
</g>
<g>
</g>
</svg>
